<svg width="105" height="55" viewBox="0 0 105 55" fill="none" xmlns="http://www.w3.org/2000/svg">
<path d="M10.2901 35.512C8.69012 35.512 7.25012 35.2347 5.97012 34.68C4.71146 34.1253 3.65546 33.3467 2.80212 32.344C1.97012 31.32 1.41546 30.136 1.13812 28.792L5.07412 27.768L5.42612 27.832C5.72479 28.5787 6.11946 29.2293 6.61012 29.784C7.10079 30.3387 7.67679 30.7653 8.33812 31.064C8.99946 31.3627 9.71412 31.512 10.4821 31.512C11.2288 31.512 11.8795 31.3947 12.4341 31.16C13.0101 30.9253 13.4581 30.6053 13.7781 30.2C14.1195 29.7733 14.2901 29.2933 14.2901 28.76C14.2901 28.1413 14.0768 27.6293 13.6501 27.224C13.2448 26.8187 12.5835 26.4987 11.6661 26.264L7.82612 25.272C5.84212 24.76 4.32746 23.9173 3.28212 22.744C2.23679 21.5707 1.71412 20.2053 1.71412 18.648C1.71412 17.3467 2.04479 16.2053 2.70612 15.224C3.36746 14.2427 4.28479 13.4747 5.45812 12.92C6.65279 12.3653 8.02879 12.088 9.58612 12.088C11.0795 12.088 12.4128 12.344 13.5861 12.856C14.7808 13.368 15.7621 14.104 16.5301 15.064C17.3195 16.0027 17.8421 17.1333 18.0981 18.456L14.4501 19.256L14.0981 19.192C13.8421 18.1893 13.3195 17.4213 12.5301 16.888C11.7408 16.3547 10.7488 16.088 9.55412 16.088C8.53012 16.088 7.70879 16.3333 7.09012 16.824C6.49279 17.3147 6.19412 17.912 6.19412 18.616C6.19412 19.256 6.41812 19.8 6.86612 20.248C7.33546 20.6747 8.02879 21.0053 8.94612 21.24L12.7861 22.232C14.7701 22.744 16.2635 23.544 17.2661 24.632C18.2688 25.6987 18.7701 27.0213 18.7701 28.6C18.7701 29.9867 18.4181 31.2027 17.7141 32.248C17.0101 33.2933 16.0181 34.104 14.7381 34.68C13.4795 35.2347 11.9968 35.512 10.2901 35.512ZM32.2131 35.512C30.9758 35.512 29.8771 35.256 28.9171 34.744C27.9571 34.232 27.1678 33.5813 26.5491 32.792C25.9518 32.0027 25.5358 31.192 25.3011 30.36V23.32C25.5358 22.488 25.9518 21.688 26.5491 20.92C27.1678 20.1307 27.9571 19.4907 28.9171 19C29.8771 18.488 30.9758 18.232 32.2131 18.232C33.7065 18.232 35.0398 18.6053 36.2131 19.352C37.4078 20.0773 38.3465 21.0907 39.0291 22.392C39.7331 23.672 40.0851 25.1547 40.0851 26.84C40.0851 28.5253 39.7331 30.0293 39.0291 31.352C38.3465 32.6533 37.4078 33.6773 36.2131 34.424C35.0398 35.1493 33.7065 35.512 32.2131 35.512ZM22.9331 41.4V18.744H26.9331V23.256L25.9731 26.872L27.2531 30.488V41.4H22.9331ZM31.4451 31.672C32.3198 31.672 33.0771 31.4693 33.7171 31.064C34.3571 30.6587 34.8585 30.0933 35.2211 29.368C35.5838 28.6427 35.7651 27.8107 35.7651 26.872C35.7651 25.912 35.5838 25.08 35.2211 24.376C34.8585 23.6507 34.3571 23.0853 33.7171 22.68C33.0771 22.2747 32.3198 22.072 31.4451 22.072C30.5918 22.072 29.8345 22.2747 29.1731 22.68C28.5331 23.0853 28.0318 23.6507 27.6691 24.376C27.3065 25.08 27.1251 25.912 27.1251 26.872C27.1251 27.8107 27.3065 28.6427 27.6691 29.368C28.0318 30.0933 28.5331 30.6587 29.1731 31.064C29.8345 31.4693 30.5918 31.672 31.4451 31.672ZM44.0806 35V18.744H48.4006V35H44.0806ZM46.2566 16.696C45.5313 16.696 44.9126 16.44 44.4006 15.928C43.8886 15.416 43.6326 14.7973 43.6326 14.072C43.6326 13.368 43.8886 12.76 44.4006 12.248C44.9126 11.736 45.5313 11.48 46.2566 11.48C46.9606 11.48 47.5686 11.736 48.0806 12.248C48.5926 12.76 48.8486 13.368 48.8486 14.072C48.8486 14.7973 48.5926 15.416 48.0806 15.928C47.5686 16.44 46.9606 16.696 46.2566 16.696ZM60.2689 35.512C58.7969 35.512 57.4635 35.1493 56.2689 34.424C55.0742 33.6773 54.1249 32.664 53.4209 31.384C52.7382 30.0827 52.3969 28.5893 52.3969 26.904C52.3969 25.1973 52.7382 23.6933 53.4209 22.392C54.1249 21.0907 55.0742 20.0773 56.2689 19.352C57.4635 18.6053 58.7969 18.232 60.2689 18.232C61.5062 18.232 62.6049 18.488 63.5649 19C64.5249 19.512 65.3142 20.1627 65.9329 20.952C66.5515 21.72 66.9675 22.5307 67.1809 23.384V30.424C66.9675 31.256 66.5515 32.0667 65.9329 32.856C65.3142 33.624 64.5249 34.264 63.5649 34.776C62.6049 35.2667 61.5062 35.512 60.2689 35.512ZM61.0369 31.672C61.9115 31.672 62.6689 31.4693 63.3089 31.064C63.9489 30.6587 64.4502 30.0933 64.8129 29.368C65.1755 28.6427 65.3569 27.8107 65.3569 26.872C65.3569 25.912 65.1755 25.08 64.8129 24.376C64.4502 23.6507 63.9489 23.0853 63.3089 22.68C62.6689 22.2747 61.9115 22.072 61.0369 22.072C60.1835 22.072 59.4262 22.2747 58.7649 22.68C58.1249 23.0853 57.6235 23.6507 57.2609 24.376C56.8982 25.08 56.7169 25.912 56.7169 26.872C56.7169 27.8107 56.8982 28.6427 57.2609 29.368C57.6235 30.0933 58.1249 30.6587 58.7649 31.064C59.4262 31.4693 60.1835 31.672 61.0369 31.672ZM65.5489 35V30.488L66.5089 26.872L65.2289 23.256V11.96L69.4529 11.448L69.5489 11.704V35H65.5489ZM82.3086 35.512C80.602 35.512 79.098 35.1493 77.7966 34.424C76.5166 33.6987 75.514 32.6853 74.7886 31.384C74.0633 30.0827 73.7006 28.5787 73.7006 26.872C73.7006 25.1653 74.0526 23.6613 74.7566 22.36C75.482 21.0587 76.474 20.0453 77.7326 19.32C78.9913 18.5947 80.4526 18.232 82.1166 18.232C83.7593 18.232 85.1886 18.6053 86.4046 19.352C87.6206 20.0987 88.57 21.144 89.2526 22.488C89.9353 23.832 90.2766 25.4 90.2766 27.192V27.96L89.7966 28.44H75.6206V25.016H88.5166L86.1166 25.88C86.1166 25.0907 85.9353 24.3973 85.5726 23.8C85.2313 23.2027 84.762 22.744 84.1646 22.424C83.5886 22.0827 82.938 21.912 82.2126 21.912C81.402 21.912 80.6766 22.0933 80.0366 22.456C79.3966 22.7973 78.8953 23.2773 78.5326 23.896C78.1913 24.4933 78.0206 25.1867 78.0206 25.976V27.672C78.0206 28.4187 78.2126 29.112 78.5966 29.752C79.002 30.3707 79.5246 30.872 80.1646 31.256C80.826 31.64 81.5406 31.832 82.3086 31.832C82.9913 31.832 83.6526 31.6293 84.2926 31.224C84.9326 30.8187 85.434 30.2747 85.7966 29.592H86.1806L89.6366 31.032C88.9753 32.4827 88.0046 33.592 86.7246 34.36C85.466 35.128 83.994 35.512 82.3086 35.512ZM94.2731 35V18.744H98.2731V22.616L97.2171 22.84C97.7291 21.56 98.5078 20.5573 99.5531 19.832C100.598 19.1067 101.804 18.744 103.169 18.744H104.673V22.552H102.529C101.718 22.552 101.014 22.7227 100.417 23.064C99.8411 23.4053 99.3931 23.9067 99.0731 24.568C98.7531 25.208 98.5931 25.976 98.5931 26.872V35H94.2731Z" fill="white"/>
<rect x="72" y="42" width="27" height="13" rx="3" fill="#DBF1C0"/>
<path d="M77.5681 51V50.344H79.2881C79.6295 50.344 79.8881 50.256 80.0641 50.08C80.2401 49.8987 80.3281 49.648 80.3281 49.328C80.3281 49.024 80.2348 48.7867 80.0481 48.616C79.8615 48.44 79.6081 48.352 79.2881 48.352H77.5681V47.712H79.1521C79.3388 47.712 79.5015 47.6773 79.6401 47.608C79.7788 47.5333 79.8855 47.4347 79.9601 47.312C80.0348 47.1893 80.0721 47.0453 80.0721 46.88C80.0721 46.6347 79.9921 46.4373 79.8321 46.288C79.6775 46.1333 79.4508 46.056 79.1521 46.056H77.5681V45.4H79.1521C79.6641 45.4 80.0641 45.5387 80.3521 45.816C80.6401 46.088 80.7841 46.4373 80.7841 46.864C80.7841 47.0507 80.7388 47.2293 80.6481 47.4C80.5575 47.5707 80.4375 47.7147 80.2881 47.832C80.1388 47.9493 79.9708 48.032 79.7841 48.08V47.888C80.0188 47.92 80.2295 48.0053 80.4161 48.144C80.6081 48.2827 80.7601 48.456 80.8721 48.664C80.9895 48.872 81.0481 49.0987 81.0481 49.344C81.0481 49.8453 80.8935 50.248 80.5841 50.552C80.2801 50.8507 79.8535 51 79.3041 51H77.5681ZM77.1921 51V45.4H77.8721V51H77.1921ZM81.8134 51V45.4H82.4934V51H81.8134ZM82.1654 51V50.344H85.3894V51H82.1654ZM82.1654 48.496V47.832H85.2134V48.496H82.1654ZM82.1654 46.056V45.4H85.3894V46.056H82.1654ZM87.5433 51V45.4H88.2313V51H87.5433ZM85.8073 46.056V45.4H89.9593V46.056H85.8073ZM93.6719 51L91.6479 45.568L91.5919 45.4H92.2719L94.3999 50.936V51H93.6719ZM89.4639 51V50.936L91.5919 45.4H92.2719L92.2159 45.568L90.1919 51H89.4639ZM90.2879 49.56L90.5279 48.896H93.4159L93.6559 49.56H90.2879Z" fill="black"/>
</svg>
