<svg width="21" height="20" viewBox="0 0 21 20" fill="none" xmlns="http://www.w3.org/2000/svg">
<path d="M1.58572 5.51C2.43508 3.85353 3.73757 2.46106 5.34775 1.48806C6.95794 0.515073 8.81241 -0.000126487 10.7041 2.32934e-08C13.4541 2.32934e-08 15.7643 0.991 17.5306 2.605L14.6051 5.473C13.5469 4.482 12.202 3.977 10.7041 3.977C8.04592 3.977 5.79592 5.737 4.9949 8.1C4.79082 8.7 4.67449 9.34 4.67449 10C4.67449 10.66 4.79082 11.3 4.9949 11.9C5.79694 14.264 8.04592 16.023 10.7041 16.023C12.0765 16.023 13.2449 15.668 14.1592 15.068C14.6892 14.726 15.143 14.2822 15.4931 13.7635C15.8431 13.2448 16.0822 12.6619 16.1959 12.05H10.7041V8.182H20.3143C20.4347 8.836 20.5 9.518 20.5 10.227C20.5 13.273 19.3878 15.837 17.4571 17.577C15.7694 19.105 13.4592 20 10.7041 20C9.36391 20.0005 8.03677 19.7422 6.79851 19.2399C5.56026 18.7375 4.43515 18.0009 3.48751 17.0722C2.53987 16.1436 1.78826 15.0409 1.27565 13.8275C0.763035 12.614 0.499464 11.3134 0.500001 10C0.500001 8.386 0.893878 6.86 1.58572 5.51Z" fill="black"/>
</svg>
