<svg width="101" height="17" viewBox="0 0 101 17" fill="none" xmlns="http://www.w3.org/2000/svg">
<path fill-rule="evenodd" clip-rule="evenodd" d="M5.07476 6.92861C5.27619 6.7315 5.14454 6.38906 4.86295 6.37765L0.308445 6.193C0.136111 6.18602 7.75176e-07 6.04428 7.4226e-07 5.8718L6.13494e-08 2.30389C2.74671e-08 2.12635 0.143925 1.98242 0.321466 1.98242L12.5372 1.98242C12.7147 1.98242 12.8586 2.12635 12.8586 2.30389L12.8586 14.5196C12.8586 14.6971 12.7147 14.841 12.5372 14.841H9.05896C8.88392 14.841 8.74106 14.701 8.73755 14.526L8.65069 10.1887C8.64502 9.90577 8.30299 9.76767 8.10247 9.96732L5.0465 13.0102C4.92198 13.1341 4.72098 13.1352 4.5952 13.0125L1.95755 10.4392C1.82838 10.3132 1.82822 10.1055 1.9572 9.97932L5.07476 6.92861Z" fill="white"/>
<path d="M22.7778 9.19862C22.7776 9.19862 22.7774 9.19846 22.7774 9.19825V8.23211C22.7774 7.09904 21.8195 6.1805 20.6379 6.1805C19.4563 6.1805 18.4984 7.09904 18.4984 8.23211V14.5196C18.4984 14.6971 18.3544 14.841 18.1769 14.841H14.466C14.2885 14.841 14.1445 14.6971 14.1445 14.5196V2.30389C14.1445 2.12635 14.2885 1.98242 14.466 1.98242H22.4472C22.6247 1.98242 22.7686 2.12635 22.7686 2.30389V3.60877C22.7686 5.0291 23.92 6.1805 25.3404 6.1805H26.6817C26.8592 6.1805 27.0032 6.32442 27.0032 6.50196V14.5196C27.0032 14.6971 26.8592 14.841 26.6817 14.841H23.0996C22.9221 14.841 22.7782 14.6971 22.7782 14.5196V9.19899C22.7782 9.19879 22.778 9.19862 22.7778 9.19862Z" fill="white"/>
<path d="M40.199 12.248L34.4467 3.79544V3.45634H35.7027L41.4675 11.9089V12.248H40.199ZM34.4467 12.248V3.45634H35.7027V12.248H34.4467ZM40.199 12.248V3.45634H41.4675V12.248H40.199ZM45.5863 12.4239C44.9583 12.4239 44.4015 12.2857 43.9159 12.0094C43.4386 11.7247 43.066 11.3312 42.7981 10.8288C42.5301 10.3264 42.3961 9.7445 42.3961 9.08303C42.3961 8.42156 42.5259 7.84382 42.7855 7.34981C43.0534 6.84742 43.4218 6.45808 43.8907 6.18177C44.368 5.89708 44.9164 5.75474 45.536 5.75474C46.1473 5.75474 46.679 5.89708 47.1311 6.18177C47.5916 6.46645 47.9475 6.86836 48.1987 7.38749C48.4582 7.89824 48.588 8.49692 48.588 9.18351V9.3719L48.3996 9.5603H43.0367V8.45505H47.9852L47.3446 8.70624C47.3279 8.32946 47.2358 8.00709 47.0683 7.73915C46.9092 7.47122 46.6957 7.26608 46.4278 7.12374C46.1682 6.97302 45.8752 6.89766 45.5486 6.89766C45.1969 6.89766 44.8746 6.98139 44.5815 7.14885C44.2885 7.31632 44.0582 7.55076 43.8907 7.85219C43.7317 8.14525 43.6521 8.48854 43.6521 8.88208V9.25887C43.6521 9.64403 43.7358 9.99151 43.9033 10.3013C44.0708 10.6027 44.301 10.8414 44.5941 11.0172C44.8871 11.193 45.2179 11.281 45.5863 11.281C45.938 11.281 46.2478 11.193 46.5157 11.0172C46.792 10.833 47.0097 10.5902 47.1688 10.2888H47.3195L48.3368 10.7283C48.094 11.2558 47.734 11.6703 47.2567 11.9717C46.7794 12.2732 46.2226 12.4239 45.5863 12.4239ZM55.1107 5.93057V12.248H53.9175V10.5525L54.2566 10.653C54.131 11.013 53.9426 11.327 53.6914 11.5949C53.4402 11.8545 53.143 12.0597 52.7997 12.2104C52.4648 12.3527 52.1006 12.4239 51.707 12.4239C51.2632 12.4239 50.8613 12.3276 50.5013 12.135C50.1413 11.9341 49.8566 11.6452 49.6472 11.2684C49.4379 10.8832 49.3333 10.4102 49.3333 9.84917V5.93057H50.5892V9.4975C50.5892 9.91615 50.6478 10.2553 50.7651 10.5148C50.8906 10.7744 51.0623 10.9628 51.28 11.08C51.4977 11.1889 51.7489 11.2433 52.0336 11.2433C52.3183 11.2433 52.5988 11.1721 52.8751 11.0298C53.1597 10.8874 53.3942 10.6655 53.5784 10.3641C53.7626 10.0627 53.8547 9.67333 53.8547 9.19607V5.93057H55.1107ZM56.2528 12.248V5.93057H57.446V7.62612L57.1069 7.51308C57.2743 7.02745 57.559 6.64228 57.9609 6.3576C58.3712 6.07292 58.8401 5.93057 59.3676 5.93057H59.983V7.08606H59.1666C58.8317 7.08606 58.5387 7.1656 58.2875 7.32469C58.0446 7.4754 57.8521 7.68892 57.7097 7.96523C57.5757 8.24154 57.5088 8.56809 57.5088 8.94488V12.248H56.2528ZM62.1252 12.4239C61.6982 12.4239 61.313 12.3402 60.9697 12.1727C60.6348 12.0052 60.371 11.775 60.1785 11.4819C59.9859 11.1805 59.8896 10.8372 59.8896 10.452C59.8896 9.87428 60.0905 9.41377 60.4925 9.07047C60.8944 8.7188 61.4637 8.51366 62.2006 8.45505L64.6371 8.2541V9.33422L62.4141 9.51006C61.987 9.54355 61.6731 9.63565 61.4721 9.78637C61.2711 9.93708 61.1707 10.1422 61.1707 10.4018C61.1707 10.653 61.2795 10.8623 61.4972 11.0298C61.7149 11.1889 61.9912 11.2684 62.3262 11.2684C62.6778 11.2684 62.996 11.1847 63.2807 11.0172C63.5737 10.8497 63.804 10.6279 63.9715 10.3515C64.1389 10.0669 64.2227 9.76125 64.2227 9.4347V8.40481C64.2227 7.96104 64.0803 7.59681 63.7956 7.31213C63.5193 7.02745 63.1509 6.8851 62.6904 6.8851C62.3052 6.8851 61.9829 6.97721 61.7233 7.16141C61.4721 7.34562 61.3046 7.58844 61.2209 7.88987H61.0828L60.0026 7.58844C60.1701 7.02745 60.4883 6.57949 60.9572 6.24456C61.426 5.90964 62.0038 5.74218 62.6904 5.74218C63.5696 5.74218 64.252 6.00175 64.7376 6.52088C65.2232 7.03163 65.466 7.75171 65.466 8.68112V12.248H64.3106V10.4143L64.7627 10.5525C64.6622 10.8958 64.4822 11.2098 64.2227 11.4945C63.9715 11.7792 63.6658 12.0052 63.3058 12.1727C62.9458 12.3402 62.5522 12.4239 62.1252 12.4239ZM66.742 12.248V3.20514L67.9603 3.05443L67.998 3.15491V12.248H66.742ZM75.0211 12.248L71.8436 3.72009L71.7682 3.45634H73.0242L76.365 12.1476V12.248H75.0211ZM68.4274 12.248V12.1476L71.7682 3.45634H73.0242L72.9237 3.72009L69.7461 12.248H68.4274ZM69.8089 10.0752L70.1857 8.86952H74.7197L75.0965 10.0752H69.8089ZM76.7254 12.248V5.93057H77.9186V7.62612L77.5795 7.51308C77.7469 7.02745 78.0316 6.64228 78.4335 6.3576C78.8438 6.07292 79.3127 5.93057 79.8402 5.93057H80.4556V7.08606H79.6392C79.3043 7.08606 79.0113 7.1656 78.7601 7.32469C78.5173 7.4754 78.3247 7.68892 78.1823 7.96523C78.0484 8.24154 77.9814 8.56809 77.9814 8.94488V12.248H76.7254ZM83.5147 12.4239C82.8783 12.4239 82.3173 12.2857 81.8317 12.0094C81.346 11.7247 80.9651 11.3312 80.6888 10.8288C80.4208 10.3264 80.2868 9.7445 80.2868 9.08303C80.2868 8.42156 80.4208 7.84382 80.6888 7.34981C80.9651 6.84742 81.346 6.45808 81.8317 6.18177C82.3173 5.89708 82.8783 5.75474 83.5147 5.75474C84.0087 5.75474 84.4483 5.83847 84.8334 6.00593C85.227 6.17339 85.5619 6.4204 85.8382 6.74695C86.1145 7.06512 86.3196 7.45866 86.4536 7.92755L85.386 8.22898H85.2479C85.1139 7.8187 84.8878 7.49634 84.5697 7.26189C84.2599 7.02745 83.9082 6.91022 83.5147 6.91022C83.1128 6.91022 82.7653 7.00233 82.4722 7.18653C82.1792 7.37074 81.9489 7.62612 81.7814 7.95267C81.6224 8.27084 81.5428 8.64763 81.5428 9.08303C81.5428 9.51843 81.6224 9.8994 81.7814 10.226C81.9489 10.5525 82.1792 10.8079 82.4722 10.9921C82.7653 11.1679 83.1128 11.2558 83.5147 11.2558C83.7993 11.2558 84.0589 11.2056 84.2934 11.1051C84.5278 11.0046 84.7288 10.8581 84.8962 10.6655C85.0721 10.4646 85.206 10.226 85.2981 9.94964H85.4363L86.5164 10.2511C86.3657 10.72 86.148 11.1177 85.8633 11.4442C85.5786 11.7708 85.2395 12.0178 84.846 12.1852C84.4608 12.3443 84.017 12.4239 83.5147 12.4239Z" fill="white"/>
</svg>
