<svg width="128" height="38" viewBox="0 0 128 38" fill="none" xmlns="http://www.w3.org/2000/svg">
<path d="M10.244 28.416C8.75067 28.416 7.38533 28.1387 6.148 27.584C4.932 27.0293 3.908 26.2507 3.076 25.248C2.26533 24.2453 1.72133 23.0827 1.444 21.76L3.972 21.152L4.324 21.216C4.55867 22.0693 4.964 22.848 5.54 23.552C6.116 24.2347 6.80933 24.7787 7.62 25.184C8.452 25.5893 9.32667 25.792 10.244 25.792C11.2467 25.792 12.1213 25.632 12.868 25.312C13.636 24.992 14.2333 24.544 14.66 23.968C15.108 23.392 15.332 22.7307 15.332 21.984C15.332 20.9813 15.044 20.2133 14.468 19.68C13.9133 19.1467 13.1347 18.7413 12.132 18.464L7.812 17.28C6.04133 16.7893 4.69733 16.0107 3.78 14.944C2.86267 13.8773 2.404 12.6507 2.404 11.264C2.404 10.0693 2.71333 9.024 3.332 8.128C3.95067 7.21067 4.804 6.496 5.892 5.984C7.00133 5.45067 8.28133 5.184 9.732 5.184C11.1187 5.184 12.3773 5.45067 13.508 5.984C14.66 6.496 15.5987 7.22133 16.324 8.16C17.0707 9.09867 17.5613 10.208 17.796 11.488L15.332 12.032L14.98 11.968C14.7027 10.688 14.084 9.67467 13.124 8.928C12.1853 8.18133 11.044 7.808 9.7 7.808C8.37733 7.808 7.31067 8.128 6.5 8.768C5.68933 9.38667 5.284 10.2187 5.284 11.264C5.284 12.096 5.572 12.7893 6.148 13.344C6.724 13.8987 7.556 14.3253 8.644 14.624L12.932 15.808C14.6173 16.2773 15.9187 17.024 16.836 18.048C17.7533 19.072 18.212 20.3307 18.212 21.824C18.212 23.1467 17.8813 24.2987 17.22 25.28C16.5587 26.2613 15.6307 27.0293 14.436 27.584C13.2413 28.1387 11.844 28.416 10.244 28.416ZM31.1162 28.416C30.0069 28.416 28.9829 28.192 28.0442 27.744C27.1269 27.2747 26.3376 26.6453 25.6762 25.856C25.0362 25.0667 24.5669 24.1707 24.2682 23.168V16.768C24.5669 15.744 25.0362 14.848 25.6762 14.08C26.3376 13.2907 27.1269 12.672 28.0442 12.224C28.9829 11.776 30.0069 11.552 31.1162 11.552C32.5669 11.552 33.8576 11.9147 34.9882 12.64C36.1189 13.3653 37.0256 14.368 37.7082 15.648C38.3909 16.9067 38.7322 18.3467 38.7322 19.968C38.7322 21.6107 38.3909 23.072 37.7082 24.352C37.0256 25.6107 36.1189 26.6027 34.9882 27.328C33.8576 28.0533 32.5669 28.416 31.1162 28.416ZM22.8922 34.4V11.968H25.5162V17.696L25.0362 19.968L25.6122 22.272V34.4H22.8922ZM30.9242 25.824C31.9056 25.824 32.7802 25.5787 33.5482 25.088C34.3162 24.576 34.9136 23.8827 35.3402 23.008C35.7882 22.1333 36.0122 21.12 36.0122 19.968C36.0122 18.816 35.7882 17.8027 35.3402 16.928C34.9136 16.0533 34.3162 15.3707 33.5482 14.88C32.7802 14.3893 31.9056 14.144 30.9242 14.144C29.9002 14.144 28.9829 14.3893 28.1722 14.88C27.3829 15.3707 26.7536 16.0533 26.2842 16.928C25.8362 17.8027 25.6122 18.816 25.6122 19.968C25.6122 21.12 25.8362 22.1333 26.2842 23.008C26.7536 23.8827 27.3829 24.576 28.1722 25.088C28.9829 25.5787 29.9002 25.824 30.9242 25.824ZM43.1022 28V11.968H45.8222V28H43.1022ZM44.4782 8.992C43.9449 8.992 43.4969 8.81067 43.1342 8.448C42.7716 8.08533 42.5902 7.63733 42.5902 7.104C42.5902 6.57067 42.7716 6.12267 43.1342 5.76C43.4969 5.376 43.9449 5.184 44.4782 5.184C45.0116 5.184 45.4596 5.376 45.8222 5.76C46.2062 6.12267 46.3982 6.57067 46.3982 7.104C46.3982 7.63733 46.2062 8.08533 45.8222 8.448C45.4596 8.81067 45.0116 8.992 44.4782 8.992ZM57.844 28.416C56.4147 28.416 55.124 28.0533 53.972 27.328C52.82 26.6027 51.9027 25.6107 51.22 24.352C50.5587 23.072 50.228 21.6107 50.228 19.968C50.228 18.3467 50.5587 16.9067 51.22 15.648C51.9027 14.368 52.82 13.3653 53.972 12.64C55.124 11.9147 56.4147 11.552 57.844 11.552C58.9533 11.552 59.9667 11.776 60.884 12.224C61.8227 12.672 62.612 13.2907 63.252 14.08C63.9133 14.848 64.3933 15.744 64.692 16.768V23.2C64.3933 24.2027 63.9133 25.0987 63.252 25.888C62.612 26.6773 61.8227 27.296 60.884 27.744C59.9667 28.192 58.9533 28.416 57.844 28.416ZM58.036 25.824C59.0813 25.824 59.9987 25.5787 60.788 25.088C61.5773 24.576 62.196 23.8827 62.644 23.008C63.1133 22.1333 63.348 21.12 63.348 19.968C63.348 18.816 63.1133 17.8027 62.644 16.928C62.196 16.0533 61.5773 15.3707 60.788 14.88C59.9987 14.3893 59.0813 14.144 58.036 14.144C57.076 14.144 56.2013 14.3893 55.412 14.88C54.644 15.3707 54.036 16.0533 53.588 16.928C53.1613 17.8027 52.948 18.816 52.948 19.968C52.948 21.12 53.1613 22.1333 53.588 23.008C54.036 23.8827 54.644 24.576 55.412 25.088C56.2013 25.5787 57.076 25.824 58.036 25.824ZM63.444 28V22.272L63.924 19.968L63.316 17.696V4.96L65.972 4.64L66.068 4.896V28H63.444ZM78.5615 28.416C77.0042 28.416 75.6282 28.064 74.4335 27.36C73.2388 26.6347 72.3002 25.6427 71.6175 24.384C70.9562 23.1253 70.6255 21.6533 70.6255 19.968C70.6255 18.304 70.9562 16.8427 71.6175 15.584C72.2788 14.304 73.1962 13.312 74.3695 12.608C75.5642 11.904 76.9295 11.552 78.4655 11.552C79.9802 11.552 81.3028 11.9147 82.4335 12.64C83.5855 13.344 84.4815 14.3467 85.1215 15.648C85.7615 16.9493 86.0815 18.464 86.0815 20.192V20.576L85.6015 21.024H72.1295V18.496H84.6095L83.3295 19.008C83.2655 17.984 83.0095 17.1093 82.5615 16.384C82.1135 15.6587 81.5375 15.104 80.8335 14.72C80.1295 14.3147 79.3402 14.112 78.4655 14.112C77.5268 14.112 76.6628 14.3467 75.8735 14.816C75.0842 15.264 74.4655 15.904 74.0175 16.736C73.5695 17.568 73.3455 18.528 73.3455 19.616V20.256C73.3455 21.3227 73.5695 22.2827 74.0175 23.136C74.4655 23.968 75.0842 24.6293 75.8735 25.12C76.6628 25.6107 77.5588 25.856 78.5615 25.856C79.5428 25.856 80.3962 25.6213 81.1215 25.152C81.8468 24.6613 82.4122 24 82.8175 23.168H83.2015L85.4415 24.16C84.8442 25.4827 83.9375 26.528 82.7215 27.296C81.5268 28.0427 80.1402 28.416 78.5615 28.416ZM90.451 28V11.968H93.075V16.48L92.307 16C92.691 14.7627 93.4057 13.7813 94.451 13.056C95.4963 12.3307 96.6697 11.968 97.971 11.968H99.603V14.528H97.555C96.6803 14.528 95.9123 14.7413 95.251 15.168C94.611 15.5733 94.099 16.1493 93.715 16.896C93.3523 17.6213 93.171 18.4747 93.171 19.456V28H90.451Z" fill="#202020"/>
<path d="M108.108 12V0.799999H109.484V12H108.108ZM104.636 2.112V0.799999H112.94V2.112H104.636ZM120.114 12L120.13 11.664L124.77 0.799999H126.066V1.136L121.426 12H120.114ZM115.058 12V0.799999H116.418V12H115.058ZM120.13 12L115.474 1.136V0.799999H116.786L121.426 11.664V12H120.13ZM125.122 12V0.799999H126.482V12H125.122Z" fill="#202020"/>
</svg>
