<svg width="36" height="42" viewBox="0 0 36 42" fill="none" xmlns="http://www.w3.org/2000/svg">
<path d="M22.9277 17.5403C26.2871 17.7405 29.4363 18.8283 31.7422 20.7922C34.0444 22.753 35.5146 25.5947 35.5146 29.3264C35.5144 35.854 30.2273 41.1458 23.7051 41.1458H3.03418L2.93262 41.1399C2.43126 41.0888 2.04004 40.6652 2.04004 40.1497V29.9661L2.04492 29.8645C2.09252 29.396 2.46471 29.0235 2.93262 28.9758L3.03418 28.9709H20.6338C21.3567 28.9707 21.9424 28.3836 21.9424 27.6604V18.5022C21.9424 17.984 22.3352 17.5642 22.8281 17.5403H22.9277ZM11.3584 0.854736H32.4727C33.0217 0.854817 33.4665 1.30013 33.4668 1.84985V12.0334C33.4668 12.5834 33.0218 13.0295 32.4727 13.0295H20.3428C20.0388 13.0295 19.7457 13.1352 19.5127 13.3264L19.417 13.4133L9.11328 23.7249C8.74897 24.0891 8.17279 24.1113 7.78223 23.7922L7.70703 23.7249L3.5957 19.6106C-3.32011 12.6892 1.5785 0.854981 11.3584 0.854736Z" fill="url(#paint0_linear_2_11058)" stroke="url(#paint1_linear_2_11058)" stroke-width="0.314373"/>
<defs>
<linearGradient id="paint0_linear_2_11058" x1="11.5797" y1="0.559589" x2="28.1048" y2="31.3403" gradientUnits="userSpaceOnUse">
<stop stop-color="#F8F8F8" stop-opacity="0.9"/>
<stop offset="1" stop-color="#F8F8F8" stop-opacity="0.2"/>
</linearGradient>
<linearGradient id="paint1_linear_2_11058" x1="17.9367" y1="0.69751" x2="17.9367" y2="41.3026" gradientUnits="userSpaceOnUse">
<stop stop-color="#999999" stop-opacity="0"/>
<stop offset="1" stop-color="#F6F6F6"/>
</linearGradient>
</defs>
</svg>
