<svg width="25" height="20" viewBox="0 0 25 20" fill="none" xmlns="http://www.w3.org/2000/svg">
<path d="M0.00233325 12.6293C-0.0189725 12.4513 0.108013 12.2898 0.285967 12.2685L11.718 10.9148L14.5713 10.5731L23.8726 9.47623C24.0506 9.45492 24.2121 9.58191 24.2334 9.75987L24.4263 11.371C24.4476 11.5489 24.3206 11.7105 24.1427 11.7318L14.543 12.8643L10.0823 13.3985L0.556039 14.524C0.378077 14.5453 0.216533 14.4183 0.195226 14.2404L0.00233325 12.6293Z" fill="white"/>
<path d="M5.60832 2.64941C5.52189 2.49239 5.57912 2.29504 5.73614 2.20862L7.15774 1.42616C7.31475 1.33974 7.5121 1.39697 7.59852 1.55398L11.1615 7.83269C11.2479 7.98971 11.1907 8.18706 11.0336 8.27348L9.61204 9.05594C9.45503 9.14236 9.25768 9.08513 9.17126 8.92812L5.60832 2.64941ZM12.1193 13.1722C12.0329 13.0152 12.0901 12.8179 12.2471 12.7315L13.6687 11.949C13.8257 11.8626 14.0231 11.9198 14.1095 12.0768L14.543 12.8643L17.7751 18.7362C17.8615 18.8932 17.8043 19.0906 17.6472 19.177L16.2256 19.9594C16.0686 20.0459 15.8713 19.9886 15.7848 19.8316L12.5076 13.8777L12.1193 13.1722Z" fill="white"/>
<path d="M18.8076 0.584765C18.9757 0.64706 19.0614 0.833795 18.9991 1.00185L18.7172 1.76254L18.6042 2.0648C17.4882 5.02445 16.1362 7.86817 14.5713 10.5731C13.9197 11.6992 13.2313 12.8013 12.5076 13.8777C11.5863 15.2479 10.6079 16.5765 9.57576 17.8599C9.47379 17.9867 9.2863 18.0013 9.16533 17.8925L7.89729 16.7518C7.78477 16.6506 7.77126 16.479 7.8659 16.3609C8.63659 15.3991 9.37591 14.4112 10.0823 13.3985C10.649 12.5862 11.1945 11.758 11.718 10.9148C13.6558 7.79349 15.2923 4.46602 16.5871 0.973007L16.8691 0.212271C16.9315 0.044236 17.1182 -0.0414806 17.2862 0.020809L18.8076 0.584765Z" fill="white"/>
</svg>
