<svg width="44" height="44" viewBox="0 0 44 44" fill="none" xmlns="http://www.w3.org/2000/svg">
<rect width="44" height="44" rx="22" fill="#FFFF1E"/>
<g clip-path="url(#clip0_57_26)">
<path d="M13.9998 22.4998C13.9998 21.8368 14.2632 21.2009 14.732 20.7321C15.2008 20.2632 15.8367 19.9998 16.4998 19.9998C17.1628 19.9998 17.7987 20.2632 18.2676 20.7321C18.7364 21.2009 18.9998 21.8368 18.9998 22.4998C18.9998 23.1629 18.7364 23.7988 18.2676 24.2676C17.7987 24.7365 17.1628 24.9999 16.4998 24.9999C15.8367 24.9999 15.2008 24.7365 14.732 24.2676C14.2632 23.7988 13.9998 23.1629 13.9998 22.4998Z" stroke="black" stroke-linecap="round" stroke-linejoin="round"/>
<path d="M24.0015 27.5C24.0015 26.8369 24.2649 26.201 24.7337 25.7322C25.2026 25.2633 25.8384 24.9999 26.5015 24.9999C27.1645 24.9999 27.8004 25.2633 28.2693 25.7322C28.7381 26.201 29.0015 26.8369 29.0015 27.5C29.0015 28.163 28.7381 28.7989 28.2693 29.2678C27.8004 29.7366 27.1645 30 26.5015 30C25.8384 30 25.2026 29.7366 24.7337 29.2678C24.2649 28.7989 24.0015 28.163 24.0015 27.5Z" stroke="black" stroke-linecap="round" stroke-linejoin="round"/>
<path d="M24.0015 17.5C24.0015 16.8369 24.2649 16.201 24.7337 15.7322C25.2026 15.2633 25.8384 14.9999 26.5015 14.9999C27.1645 14.9999 27.8004 15.2633 28.2693 15.7322C28.7381 16.201 29.0015 16.8369 29.0015 17.5C29.0015 18.163 28.7381 18.7989 28.2693 19.2678C27.8004 19.7366 27.1645 20 26.5015 20C25.8384 20 25.2026 19.7366 24.7337 19.2678C24.2649 18.7989 24.0015 18.163 24.0015 17.5Z" stroke="black" stroke-linecap="round" stroke-linejoin="round"/>
<path d="M18.7493 23.583L24.2493 26.4164" stroke="black" stroke-linecap="round" stroke-linejoin="round"/>
<path d="M18.7493 21.4165L24.2493 18.5831" stroke="black" stroke-linecap="round" stroke-linejoin="round"/>
</g>
<defs>
<clipPath id="clip0_57_26">
<rect width="24" height="24" fill="white" transform="translate(10 10)"/>
</clipPath>
</defs>
</svg>
