<svg width="75" height="74" viewBox="0 0 75 74" fill="none" xmlns="http://www.w3.org/2000/svg">
<path d="M22.6969 7.39844C20.7343 7.39844 18.8521 8.17808 17.4643 9.56585C16.0765 10.9536 15.2969 12.8358 15.2969 14.7984V33.0643C16.5064 32.7224 17.745 32.4932 18.9969 32.3798V14.7984C18.9969 13.8171 19.3867 12.876 20.0806 12.1821C20.7745 11.4883 21.7156 11.0984 22.6969 11.0984H37.4969V24.0484C37.4969 25.5204 38.0816 26.9321 39.1224 27.9729C40.1633 29.0137 41.5749 29.5984 43.0469 29.5984H55.9969V59.1984C55.9969 60.1797 55.6071 61.1208 54.9132 61.8147C54.2193 62.5086 53.2782 62.8984 52.2969 62.8984H39.9769C39.3035 64.2165 38.4884 65.4572 37.546 66.5984H52.2969C54.2595 66.5984 56.1417 65.8188 57.5295 64.431C58.9172 63.0433 59.6969 61.161 59.6969 59.1984V27.4302C59.6956 25.9588 59.11 24.5481 58.0689 23.5082L43.5871 9.02274C42.5466 7.98297 41.136 7.39875 39.6651 7.39844H22.6969ZM55.231 25.8984H43.0469C42.5562 25.8984 42.0857 25.7035 41.7387 25.3566C41.3918 25.0096 41.1969 24.5391 41.1969 24.0484V11.8643L55.231 25.8984Z" fill="#AAAAAA"/>
<rect x="5.20312" y="38" width="31.3016" height="31.3016" rx="15.6508" fill="white"/>
<path d="M20.8539 69.3016C25.0048 69.3016 28.9856 67.6526 31.9207 64.7176C34.8558 61.7825 36.5047 57.8016 36.5047 53.6508C36.5047 49.4999 34.8558 45.5191 31.9207 42.584C28.9856 39.6489 25.0048 38 20.8539 38C16.7031 38 12.7222 39.6489 9.78713 42.584C6.85204 45.5191 5.20313 49.4999 5.20312 53.6508C5.20313 57.8016 6.85204 61.7825 9.78713 64.7176C12.7222 67.6526 16.7031 69.3016 20.8539 69.3016ZM29.041 52.4231C29.2025 52.5847 29.3305 52.7766 29.4178 52.9878C29.5051 53.199 29.5499 53.4253 29.5498 53.6538C29.5496 53.8822 29.5044 54.1085 29.4168 54.3195C29.3292 54.5305 29.2009 54.7223 29.0393 54.8837C28.8776 55.0452 28.6857 55.1732 28.4745 55.2605C28.2634 55.3478 28.0371 55.3926 27.8086 55.3925C27.5801 55.3923 27.3539 55.3471 27.1428 55.2595C26.9318 55.172 26.7401 55.0437 26.5786 54.882L22.5929 50.8928V60.6067C22.5929 61.0679 22.4097 61.5102 22.0835 61.8363C21.7574 62.1624 21.3151 62.3457 20.8539 62.3457C20.3927 62.3457 19.9504 62.1624 19.6243 61.8363C19.2981 61.5102 19.1149 61.0679 19.1149 60.6067V50.8928L15.1292 54.882C14.8031 55.2085 14.3607 55.3921 13.8992 55.3925C13.4378 55.3928 12.9951 55.2098 12.6685 54.8837C12.342 54.5576 12.1584 54.1152 12.1581 53.6538C12.1577 53.1923 12.3407 52.7496 12.6668 52.4231L19.6227 45.4672C19.9463 45.1425 20.3851 44.9588 20.8435 44.9559H20.8643C21.3176 44.9587 21.7519 45.1384 22.0747 45.4567L22.0851 45.4672L29.041 52.4231Z" fill="#1E342F"/>
</svg>
