<svg width="25" height="24" viewBox="0 0 25 24" fill="none" xmlns="http://www.w3.org/2000/svg">
<g clip-path="url(#clip0_218_1139)">
<path d="M9.3335 5H7.3335C6.80306 5 6.29436 5.21071 5.91928 5.58579C5.54421 5.96086 5.3335 6.46957 5.3335 7V19C5.3335 19.5304 5.54421 20.0391 5.91928 20.4142C6.29436 20.7893 6.80306 21 7.3335 21H11.8335M19.3335 11V7C19.3335 6.46957 19.1228 5.96086 18.7477 5.58579C18.3726 5.21071 17.8639 5 17.3335 5H15.3335" stroke="#939393" stroke-width="1.5" stroke-linecap="round" stroke-linejoin="round"/>
<path d="M9.3335 5C9.3335 4.46957 9.54421 3.96086 9.91928 3.58579C10.2944 3.21071 10.8031 3 11.3335 3H13.3335C13.8639 3 14.3726 3.21071 14.7477 3.58579C15.1228 3.96086 15.3335 4.46957 15.3335 5C15.3335 5.53043 15.1228 6.03914 14.7477 6.41421C14.3726 6.78929 13.8639 7 13.3335 7H11.3335C10.8031 7 10.2944 6.78929 9.91928 6.41421C9.54421 6.03914 9.3335 5.53043 9.3335 5Z" stroke="#939393" stroke-width="1.5" stroke-linecap="round" stroke-linejoin="round"/>
<path d="M15.3335 18C15.3335 18.7956 15.6496 19.5587 16.2122 20.1213C16.7748 20.6839 17.5378 21 18.3335 21C19.1291 21 19.8922 20.6839 20.4548 20.1213C21.0174 19.5587 21.3335 18.7956 21.3335 18C21.3335 17.2044 21.0174 16.4413 20.4548 15.8787C19.8922 15.3161 19.1291 15 18.3335 15C17.5378 15 16.7748 15.3161 16.2122 15.8787C15.6496 16.4413 15.3335 17.2044 15.3335 18Z" stroke="#939393" stroke-width="1.5" stroke-linecap="round" stroke-linejoin="round"/>
<path d="M20.5337 20.2L22.3337 22" stroke="#939393" stroke-width="1.5" stroke-linecap="round" stroke-linejoin="round"/>
</g>
<defs>
<clipPath id="clip0_218_1139">
<rect width="24" height="24" fill="white" transform="translate(0.333496)"/>
</clipPath>
</defs>
</svg>
