<svg width="16" height="16" viewBox="0 0 16 16" fill="none" xmlns="http://www.w3.org/2000/svg">
<g clip-path="url(#clip0_461_18009)">
<path d="M10.6673 7.99992V9.33325C10.6673 9.68687 10.5268 10.026 10.2768 10.2761C10.0267 10.5261 9.68761 10.6666 9.33398 10.6666H6.00065C5.82384 10.6666 5.65427 10.7368 5.52925 10.8618C5.40422 10.9869 5.33398 11.1564 5.33398 11.3333V13.3333C5.33398 13.6869 5.47446 14.026 5.72451 14.2761C5.97456 14.5261 6.3137 14.6666 6.66732 14.6666H13.334C13.6876 14.6666 14.0267 14.5261 14.2768 14.2761C14.5268 14.026 14.6673 13.6869 14.6673 13.3333V6.66659C14.6673 6.31296 14.5268 5.97382 14.2768 5.72378C14.0267 5.47373 13.6876 5.33325 13.334 5.33325" stroke="white" stroke-linecap="round" stroke-linejoin="round"/>
<path d="M2.66732 10.6666C2.3137 10.6666 1.97456 10.5261 1.72451 10.2761C1.47446 10.026 1.33398 9.68687 1.33398 9.33325V2.66659C1.33398 2.31296 1.47446 1.97382 1.72451 1.72378C1.97456 1.47373 2.3137 1.33325 2.66732 1.33325H9.33398C9.68761 1.33325 10.0267 1.47373 10.2768 1.72378C10.5268 1.97382 10.6673 2.31296 10.6673 2.66659V4.66659C10.6673 4.8434 10.5971 5.01297 10.4721 5.13799C10.347 5.26301 10.1775 5.33325 10.0007 5.33325H6.66732C6.3137 5.33325 5.97456 5.47373 5.72451 5.72378C5.47446 5.97382 5.33398 6.31296 5.33398 6.66658V7.99992" stroke="white" stroke-linecap="round" stroke-linejoin="round"/>
</g>
<defs>
<clipPath id="clip0_461_18009">
<rect width="16" height="16" fill="white"/>
</clipPath>
</defs>
</svg>
