<svg width="32" height="32" viewBox="0 0 32 32" fill="none" xmlns="http://www.w3.org/2000/svg">
<path d="M8 3V8.469L8.375 8.781L12.406 12H9.344L5.594 9.187L4.406 10.813L8.656 14H12.219L8.625 17H4V19H9.375L9.625 18.781L11.031 17.625C11.023 17.75 11 17.871 11 18C11 18.176 11.016 18.352 11.031 18.531L7.281 22.281L7 22.594V29H9V23.437L11.563 20.875C11.836 21.629 12.183 22.375 12.625 23.063C13.633 24.628 15.109 26 17 26C18.89 26 20.367 24.629 21.375 23.062C21.8091 22.3745 22.1656 21.641 22.438 20.875L25 23.438V29H27V22.594L26.719 22.281L22.969 18.531C22.984 18.351 23 18.176 23 18C23 17.879 22.977 17.773 22.969 17.656L24.375 18.781L24.656 19H30V17H25.344L21.594 14H25.344L29.594 10.812L28.406 9.188L24.656 12H21.594L25.625 8.781L26 8.47V3H24V7.531L20.875 10.031C20.719 9.411 20.406 8.875 20 8.406V5H18V7.156C17.68 7.074 17.344 7 17 7C16.656 7 16.32 7.074 16 7.156V5H14V8.406C13.594 8.875 13.281 9.41 13.125 10.031L10 7.531V3H8ZM17 9C18.117 9 19 9.883 19 11C19 12.117 18.117 13 17 13C15.883 13 15 12.117 15 11C15 9.883 15.883 9 17 9ZM17 15C18.23 15 19.266 15.297 19.938 15.781C20.608 16.266 21 16.891 21 18C21 19.11 20.488 20.754 19.687 22C18.886 23.246 17.867 24 17 24C16.133 24 15.113 23.246 14.312 22C13.512 20.754 13 19.11 13 18C13 16.89 13.39 16.266 14.063 15.781C14.733 15.297 15.77 15 17 15Z" fill="url(#paint0_linear_106_576)"/>
<defs>
<linearGradient id="paint0_linear_106_576" x1="3.93227" y1="6" x2="26" y2="31" gradientUnits="userSpaceOnUse">
<stop stop-color="#FFFF1E"/>
<stop offset="0.539679" stop-color="#7EFFB0"/>
<stop offset="1" stop-color="#FF43FC"/>
</linearGradient>
</defs>
</svg>
