<svg width="72" height="72" viewBox="0 0 72 72" fill="none" xmlns="http://www.w3.org/2000/svg">
<rect width="72" height="72" rx="36" fill="white" fill-opacity="0.15"/>
<rect x="14" y="14" width="44" height="44" rx="22" fill="#737E88"/>
<path d="M29.5 31.4121C29.5 32.473 29.9214 33.4904 30.6716 34.2405C31.4217 34.9907 32.4391 35.4121 33.5 35.4121C34.5609 35.4121 35.5783 34.9907 36.3284 34.2405C37.0786 33.4904 37.5 32.473 37.5 31.4121C37.5 30.3512 37.0786 29.3338 36.3284 28.5837C35.5783 27.8335 34.5609 27.4121 33.5 27.4121C32.4391 27.4121 31.4217 27.8335 30.6716 28.5837C29.9214 29.3338 29.5 30.3512 29.5 31.4121Z" stroke="white" stroke-width="1.5" stroke-linecap="round" stroke-linejoin="round"/>
<path d="M27.5 45.4121V43.4121C27.5 42.3512 27.9214 41.3338 28.6716 40.5837C29.4217 39.8335 30.4391 39.4121 31.5 39.4121H35.5C36.5609 39.4121 37.5783 39.8335 38.3284 40.5837C39.0786 41.3338 39.5 42.3512 39.5 43.4121V45.4121" stroke="white" stroke-width="1.5" stroke-linecap="round" stroke-linejoin="round"/>
<path d="M40.5 27.543C41.3604 27.7633 42.123 28.2637 42.6676 28.9653C43.2122 29.6669 43.5078 30.5298 43.5078 31.418C43.5078 32.3061 43.2122 33.169 42.6676 33.8707C42.123 34.5723 41.3604 35.0727 40.5 35.293" stroke="white" stroke-width="1.5" stroke-linecap="round" stroke-linejoin="round"/>
<path d="M45.5 45.4125V43.4125C45.4949 42.5297 45.1979 41.6733 44.6553 40.9769C44.1126 40.2805 43.3548 39.7832 42.5 39.5625" stroke="white" stroke-width="1.5" stroke-linecap="round" stroke-linejoin="round"/>
</svg>
