<svg width="73" height="72" viewBox="0 0 73 72" fill="none" xmlns="http://www.w3.org/2000/svg">
<rect x="0.5" width="72" height="72" rx="36" fill="white" fill-opacity="0.15"/>
<rect x="14.5" y="14" width="44" height="44" rx="22" fill="#8D785E"/>
<path d="M27.5 37.4121C27.5 37.1469 27.6054 36.8925 27.7929 36.705C27.9804 36.5175 28.2348 36.4121 28.5 36.4121H32.5C32.7652 36.4121 33.0196 36.5175 33.2071 36.705C33.3946 36.8925 33.5 37.1469 33.5 37.4121V43.4121C33.5 43.6773 33.3946 43.9317 33.2071 44.1192C33.0196 44.3068 32.7652 44.4121 32.5 44.4121H28.5C28.2348 44.4121 27.9804 44.3068 27.7929 44.1192C27.6054 43.9317 27.5 43.6773 27.5 43.4121V37.4121Z" stroke="white" stroke-width="1.5" stroke-linecap="round" stroke-linejoin="round"/>
<path d="M39.5 33.4121C39.5 33.1469 39.6054 32.8925 39.7929 32.705C39.9804 32.5175 40.2348 32.4121 40.5 32.4121H44.5C44.7652 32.4121 45.0196 32.5175 45.2071 32.705C45.3946 32.8925 45.5 33.1469 45.5 33.4121V43.4121C45.5 43.6773 45.3946 43.9317 45.2071 44.1192C45.0196 44.3068 44.7652 44.4121 44.5 44.4121H40.5C40.2348 44.4121 39.9804 44.3068 39.7929 44.1192C39.6054 43.9317 39.5 43.6773 39.5 43.4121V33.4121Z" stroke="white" stroke-width="1.5" stroke-linecap="round" stroke-linejoin="round"/>
<path d="M33.5 29.4121C33.5 29.1469 33.6054 28.8925 33.7929 28.705C33.9804 28.5175 34.2348 28.4121 34.5 28.4121H38.5C38.7652 28.4121 39.0196 28.5175 39.2071 28.705C39.3946 28.8925 39.5 29.1469 39.5 29.4121V43.4121C39.5 43.6773 39.3946 43.9317 39.2071 44.1192C39.0196 44.3068 38.7652 44.4121 38.5 44.4121H34.5C34.2348 44.4121 33.9804 44.3068 33.7929 44.1192C33.6054 43.9317 33.5 43.6773 33.5 43.4121V29.4121Z" stroke="white" stroke-width="1.5" stroke-linecap="round" stroke-linejoin="round"/>
<path d="M28.5 44.4121H42.5" stroke="white" stroke-width="1.5" stroke-linecap="round" stroke-linejoin="round"/>
</svg>
