<svg width="18" height="18" viewBox="0 0 18 18" fill="none" xmlns="http://www.w3.org/2000/svg">
<g clip-path="url(#clip0_461_17998)">
<path d="M6.75 3.75H5.25C4.85218 3.75 4.47064 3.90804 4.18934 4.18934C3.90804 4.47064 3.75 4.85218 3.75 5.25V14.25C3.75 14.6478 3.90804 15.0294 4.18934 15.3107C4.47064 15.592 4.85218 15.75 5.25 15.75H8.625M14.25 8.25V5.25C14.25 4.85218 14.092 4.47064 13.8107 4.18934C13.5294 3.90804 13.1478 3.75 12.75 3.75H11.25" stroke="white" stroke-linecap="round" stroke-linejoin="round"/>
<path d="M6.75 3.75C6.75 3.35218 6.90804 2.97064 7.18934 2.68934C7.47064 2.40804 7.85218 2.25 8.25 2.25H9.75C10.1478 2.25 10.5294 2.40804 10.8107 2.68934C11.092 2.97064 11.25 3.35218 11.25 3.75C11.25 4.14782 11.092 4.52936 10.8107 4.81066C10.5294 5.09196 10.1478 5.25 9.75 5.25H8.25C7.85218 5.25 7.47064 5.09196 7.18934 4.81066C6.90804 4.52936 6.75 4.14782 6.75 3.75Z" stroke="white" stroke-linecap="round" stroke-linejoin="round"/>
<path d="M11.25 13.5C11.25 14.0967 11.4871 14.669 11.909 15.091C12.331 15.5129 12.9033 15.75 13.5 15.75C14.0967 15.75 14.669 15.5129 15.091 15.091C15.5129 14.669 15.75 14.0967 15.75 13.5C15.75 12.9033 15.5129 12.331 15.091 11.909C14.669 11.4871 14.0967 11.25 13.5 11.25C12.9033 11.25 12.331 11.4871 11.909 11.909C11.4871 12.331 11.25 12.9033 11.25 13.5Z" stroke="white" stroke-linecap="round" stroke-linejoin="round"/>
<path d="M15.1504 15.1499L16.5004 16.4999" stroke="white" stroke-linecap="round" stroke-linejoin="round"/>
</g>
<defs>
<clipPath id="clip0_461_17998">
<rect width="18" height="18" fill="white"/>
</clipPath>
</defs>
</svg>
