<svg width="25" height="24" viewBox="0 0 25 24" fill="none" xmlns="http://www.w3.org/2000/svg">
<path d="M16.6667 12V14C16.6667 14.5304 16.456 15.0391 16.081 15.4142C15.7059 15.7893 15.1972 16 14.6667 16H9.66675C9.40153 16 9.14718 16.1054 8.95964 16.2929C8.77211 16.4804 8.66675 16.7348 8.66675 17V20C8.66675 20.5304 8.87746 21.0391 9.25253 21.4142C9.62761 21.7893 10.1363 22 10.6667 22H20.6667C21.1972 22 21.7059 21.7893 22.081 21.4142C22.456 21.0391 22.6667 20.5304 22.6667 20V10C22.6667 9.46957 22.456 8.96086 22.081 8.58579C21.7059 8.21071 21.1972 8 20.6667 8" stroke="#939393" stroke-width="1.5" stroke-linecap="round" stroke-linejoin="round"/>
<path d="M4.66675 16C4.13632 16 3.62761 15.7893 3.25253 15.4142C2.87746 15.0391 2.66675 14.5304 2.66675 14V4C2.66675 3.46957 2.87746 2.96086 3.25253 2.58579C3.62761 2.21071 4.13632 2 4.66675 2H14.6667C15.1972 2 15.7059 2.21071 16.081 2.58579C16.456 2.96086 16.6667 3.46957 16.6667 4V7C16.6667 7.26522 16.5614 7.51957 16.3739 7.70711C16.1863 7.89464 15.932 8 15.6667 8H10.6667C10.1363 8 9.62761 8.21071 9.25253 8.58579C8.87746 8.96086 8.66675 9.46957 8.66675 10V12" stroke="#939393" stroke-width="1.5" stroke-linecap="round" stroke-linejoin="round"/>
</svg>
