<svg width="24" height="24" viewBox="0 0 24 24" fill="none" xmlns="http://www.w3.org/2000/svg">
<path d="M3.60002 3.59961C3.28176 3.59961 2.97654 3.72604 2.7515 3.95108C2.52645 4.17612 2.40002 4.48135 2.40002 4.79961C2.40002 5.11787 2.52645 5.42309 2.7515 5.64814C2.97654 5.87318 3.28176 5.99961 3.60002 5.99961H16.8C17.1183 5.99961 17.4235 5.87318 17.6486 5.64814C17.8736 5.42309 18 5.11787 18 4.79961C18 4.48135 17.8736 4.17612 17.6486 3.95108C17.4235 3.72604 17.1183 3.59961 16.8 3.59961H3.60002ZM3.60002 8.39961C3.28176 8.39961 2.97654 8.52604 2.7515 8.75108C2.52645 8.97612 2.40002 9.28135 2.40002 9.59961C2.40002 9.91787 2.52645 10.2231 2.7515 10.4481C2.97654 10.6732 3.28176 10.7996 3.60002 10.7996H9.60002C9.91828 10.7996 10.2235 10.6732 10.4486 10.4481C10.6736 10.2231 10.8 9.91787 10.8 9.59961C10.8 9.28135 10.6736 8.97612 10.4486 8.75108C10.2235 8.52604 9.91828 8.39961 9.60002 8.39961H3.60002ZM3.60002 13.1996C3.28176 13.1996 2.97654 13.326 2.7515 13.5511C2.52645 13.7761 2.40002 14.0813 2.40002 14.3996C2.40002 14.7179 2.52645 15.0231 2.7515 15.2481C2.97654 15.4732 3.28176 15.5996 3.60002 15.5996H8.40002C8.71828 15.5996 9.02351 15.4732 9.24855 15.2481C9.4736 15.0231 9.60002 14.7179 9.60002 14.3996C9.60002 14.0813 9.4736 13.7761 9.24855 13.5511C9.02351 13.326 8.71828 13.1996 8.40002 13.1996H3.60002ZM15.6 19.1996C15.6 19.5179 15.7265 19.8231 15.9515 20.0481C16.1765 20.2732 16.4818 20.3996 16.8 20.3996C17.1183 20.3996 17.4235 20.2732 17.6486 20.0481C17.8736 19.8231 18 19.5179 18 19.1996V12.4964L19.5516 14.048C19.7779 14.2666 20.0811 14.3876 20.3957 14.3848C20.7103 14.3821 21.0113 14.2559 21.2338 14.0334C21.4563 13.8109 21.5825 13.5099 21.5852 13.1953C21.588 12.8807 21.467 12.5775 21.2484 12.3512L17.6484 8.75121C17.4234 8.52624 17.1182 8.39987 16.8 8.39987C16.4818 8.39987 16.1767 8.52624 15.9516 8.75121L12.3516 12.3512C12.237 12.4619 12.1456 12.5943 12.0827 12.7407C12.0198 12.8871 11.9867 13.0446 11.9853 13.2039C11.9839 13.3633 12.0143 13.5213 12.0746 13.6688C12.135 13.8162 12.2241 13.9502 12.3368 14.0629C12.4494 14.1756 12.5834 14.2647 12.7309 14.325C12.8784 14.3853 13.0364 14.4157 13.1957 14.4143C13.355 14.4129 13.5125 14.3798 13.6589 14.3169C13.8053 14.254 13.9377 14.1626 14.0484 14.048L15.6 12.4964V19.1996Z" fill="#575757"/>
</svg>
