<svg width="58" height="58" viewBox="0 0 58 58" fill="none" xmlns="http://www.w3.org/2000/svg">
<rect width="58" height="58" rx="29" fill="white" fill-opacity="0.15"/>
<rect x="11.2778" y="11.2778" width="35.4444" height="35.4444" rx="17.7222" fill="#A8B0B8"/>
<path d="M33.0004 24C33.0004 25.0609 32.579 26.0783 31.8289 26.8284C31.0787 27.5786 30.0613 28 29.0004 28C27.9396 28 26.9221 27.5786 26.172 26.8284C25.4219 26.0783 25.0004 25.0609 25.0004 24C25.0004 22.9391 25.4219 21.9217 26.172 21.1716C26.9221 20.4214 27.9396 20 29.0004 20C30.0613 20 31.0787 20.4214 31.8289 21.1716C32.579 21.9217 33.0004 22.9391 33.0004 24ZM29.0004 31C27.1439 31 25.3634 31.7375 24.0507 33.0503C22.7379 34.363 22.0004 36.1435 22.0004 38H36.0004C36.0004 36.1435 35.2629 34.363 33.9502 33.0503C32.6374 31.7375 30.8569 31 29.0004 31Z" stroke="#202020" stroke-width="2" stroke-linecap="round" stroke-linejoin="round"/>
</svg>
